<?xml version="1.0" encoding="utf-8"?>
<!-- Generator: Adobe Illustrator 16.0.0, SVG Export Plug-In . SVG Version: 6.00 Build 0)  -->
<!DOCTYPE svg PUBLIC "-//W3C//DTD SVG 1.1//EN" "http://www.w3.org/Graphics/SVG/1.1/DTD/svg11.dtd">
<svg version="1.1" id="Capa_1" xmlns="http://www.w3.org/2000/svg" xmlns:xlink="http://www.w3.org/1999/xlink" x="0px" y="0px"
	 width="215px" height="150px" viewBox="0 0 215 150" enable-background="new 0 0 215 150" xml:space="preserve">
<g>
	<path fill="#A11E27" d="M21.314,144.144v-16.008h2.813v13.535h7.055v2.473H21.314z"/>
	<path fill="#A11E27" d="M33.455,130.796l3.363-3.457h2.391l-3.961,3.457H33.455z M33.643,144.144v-11.59h2.52v11.59H33.643z"/>
	<path fill="#A11E27" d="M39.42,144.144v-11.59h2.52v1.582c0.438-0.516,1.016-0.957,1.734-1.324s1.5-0.551,2.344-0.551
		c1.234,0,2.168,0.32,2.801,0.961s0.949,1.563,0.949,2.766v8.156h-2.52v-7.242c0-0.859-0.201-1.475-0.604-1.846
		s-0.979-0.557-1.729-0.557c-0.609,0-1.18,0.15-1.711,0.451s-0.953,0.67-1.266,1.107v8.086H39.42z"/>
	<path fill="#A11E27" d="M52.311,138.331c0-1.109,0.247-2.127,0.742-3.053c0.494-0.926,1.193-1.66,2.097-2.203
		s1.912-0.814,3.026-0.814c1.713,0,3.09,0.592,4.13,1.775c1.039,1.184,1.56,2.697,1.56,4.541v0.598h-8.941
		c0.102,0.918,0.479,1.68,1.133,2.288c0.653,0.607,1.509,0.911,2.565,0.911c0.586,0,1.182-0.111,1.787-0.335
		s1.107-0.535,1.506-0.936l1.138,1.655c-0.569,0.544-1.259,0.959-2.07,1.247c-0.811,0.287-1.684,0.431-2.619,0.431
		c-1.753,0-3.2-0.564-4.341-1.693C52.881,141.614,52.311,140.144,52.311,138.331z M54.9,137.405h6.539
		c-0.016-0.359-0.088-0.713-0.218-1.061c-0.129-0.348-0.318-0.678-0.569-0.99c-0.25-0.313-0.589-0.563-1.016-0.75
		c-0.426-0.188-0.913-0.281-1.461-0.281c-0.517,0-0.984,0.092-1.403,0.275s-0.755,0.43-1.01,0.738
		c-0.254,0.309-0.454,0.637-0.599,0.984S54.932,137.03,54.9,137.405z"/>
	<path fill="#A11E27" d="M65.693,140.575c0-0.644,0.118-1.215,0.355-1.713s0.552-0.895,0.944-1.189
		c0.393-0.294,0.82-0.516,1.282-0.665c0.463-0.149,0.939-0.224,1.429-0.224c1.645,0,2.894,0.506,3.747,1.519v-1.716
		c0-0.66-0.249-1.184-0.746-1.568c-0.497-0.386-1.153-0.578-1.967-0.578c-1.297,0-2.439,0.475-3.432,1.425l-1.021-1.72
		c1.317-1.256,2.938-1.885,4.864-1.885c0.672,0,1.288,0.076,1.848,0.229c0.559,0.152,1.065,0.387,1.519,0.703
		c0.454,0.316,0.81,0.754,1.067,1.313c0.259,0.559,0.388,1.213,0.388,1.963v7.676h-2.52v-1.272c-0.438,0.502-0.98,0.889-1.627,1.159
		c-0.646,0.271-1.353,0.406-2.12,0.406c-0.481,0-0.956-0.082-1.423-0.247c-0.466-0.165-0.896-0.402-1.288-0.712
		c-0.393-0.311-0.707-0.717-0.944-1.219S65.693,141.195,65.693,140.575z M68.213,140.622c0,0.612,0.232,1.105,0.698,1.481
		s1.06,0.563,1.779,0.563c0.572,0,1.104-0.103,1.598-0.308s0.881-0.498,1.163-0.878v-1.742c-0.282-0.38-0.67-0.672-1.163-0.878
		c-0.493-0.205-1.025-0.308-1.598-0.308c-0.72,0-1.313,0.188-1.779,0.563S68.213,139.994,68.213,140.622z"/>
	<path fill="#A11E27" d="M85.475,144.144v-16.008h10.969v2.473h-8.156v4.148h7.992v2.473h-7.992v6.914H85.475z"/>
	<path fill="#A11E27" d="M99.039,130.679c-0.309-0.305-0.463-0.672-0.463-1.102s0.154-0.797,0.463-1.102s0.674-0.457,1.096-0.457
		c0.438,0,0.807,0.152,1.107,0.457s0.451,0.672,0.451,1.102s-0.15,0.797-0.451,1.102s-0.67,0.457-1.107,0.457
		C99.713,131.136,99.348,130.983,99.039,130.679z M98.881,144.144v-11.59h2.52v11.59H98.881z"/>
	<path fill="#A11E27" d="M104.658,144.144v-11.59h2.52v1.582c0.438-0.516,1.016-0.957,1.734-1.324s1.5-0.551,2.344-0.551
		c1.234,0,2.168,0.32,2.801,0.961s0.949,1.563,0.949,2.766v8.156h-2.52v-7.242c0-0.859-0.201-1.475-0.604-1.846
		s-0.979-0.557-1.729-0.557c-0.609,0-1.18,0.15-1.711,0.451s-0.953,0.67-1.266,1.107v8.086H104.658z"/>
	<path fill="#A11E27" d="M117.572,140.575c0-0.644,0.118-1.215,0.355-1.713c0.236-0.498,0.551-0.895,0.943-1.189
		c0.393-0.294,0.82-0.516,1.283-0.665s0.939-0.224,1.429-0.224c1.644,0,2.894,0.506,3.747,1.519v-1.716
		c0-0.66-0.249-1.184-0.746-1.568c-0.498-0.386-1.153-0.578-1.967-0.578c-1.297,0-2.439,0.475-3.432,1.425l-1.021-1.72
		c1.316-1.256,2.938-1.885,4.863-1.885c0.673,0,1.289,0.076,1.848,0.229c0.56,0.152,1.066,0.387,1.52,0.703s0.809,0.754,1.067,1.313
		s0.388,1.213,0.388,1.963v7.676h-2.52v-1.272c-0.439,0.502-0.98,0.889-1.627,1.159s-1.354,0.406-2.12,0.406
		c-0.481,0-0.956-0.082-1.423-0.247s-0.896-0.402-1.289-0.712c-0.393-0.311-0.707-0.717-0.943-1.219
		C117.69,141.757,117.572,141.195,117.572,140.575z M120.092,140.622c0,0.612,0.232,1.105,0.698,1.481s1.06,0.563,1.779,0.563
		c0.571,0,1.104-0.103,1.598-0.308s0.88-0.498,1.163-0.878v-1.742c-0.283-0.38-0.67-0.672-1.163-0.878
		c-0.493-0.205-1.026-0.308-1.598-0.308c-0.72,0-1.313,0.188-1.779,0.563S120.092,139.994,120.092,140.622z"/>
	<path fill="#A11E27" d="M131.119,144.144v-11.59h2.52v1.582c0.438-0.516,1.016-0.957,1.734-1.324s1.5-0.551,2.344-0.551
		c1.234,0,2.168,0.32,2.801,0.961s0.949,1.563,0.949,2.766v8.156h-2.52v-7.242c0-0.859-0.201-1.475-0.604-1.846
		s-0.979-0.557-1.729-0.557c-0.609,0-1.18,0.15-1.711,0.451s-0.953,0.67-1.266,1.107v8.086H131.119z"/>
	<path fill="#A11E27" d="M144.01,138.331c0-1.758,0.561-3.209,1.682-4.354s2.561-1.717,4.318-1.717c1.938,0,3.418,0.688,4.441,2.063
		l-1.664,1.535c-0.641-0.906-1.527-1.359-2.66-1.359c-1.047,0-1.893,0.355-2.537,1.066s-0.967,1.633-0.967,2.766
		c0,1.141,0.322,2.07,0.967,2.789s1.49,1.078,2.537,1.078c1.109,0,1.996-0.457,2.66-1.371l1.664,1.535
		c-1.031,1.383-2.512,2.074-4.441,2.074c-1.758,0-3.197-0.574-4.318-1.723S144.01,140.104,144.01,138.331z"/>
	<path fill="#A11E27" d="M156.801,130.679c-0.309-0.305-0.463-0.672-0.463-1.102s0.154-0.797,0.463-1.102s0.674-0.457,1.096-0.457
		c0.438,0,0.807,0.152,1.107,0.457s0.451,0.672,0.451,1.102s-0.15,0.797-0.451,1.102s-0.67,0.457-1.107,0.457
		C157.475,131.136,157.109,130.983,156.801,130.679z M156.643,144.144v-11.59h2.52v11.59H156.643z"/>
	<path fill="#A11E27" d="M161.705,138.331c0-1.109,0.246-2.127,0.742-3.053c0.494-0.926,1.193-1.66,2.096-2.203
		c0.904-0.543,1.912-0.814,3.027-0.814c1.713,0,3.09,0.592,4.129,1.775c1.04,1.184,1.561,2.697,1.561,4.541v0.598h-8.941
		c0.102,0.918,0.479,1.68,1.133,2.288c0.652,0.607,1.508,0.911,2.564,0.911c0.586,0,1.182-0.111,1.787-0.335
		s1.107-0.535,1.507-0.936l1.138,1.655c-0.569,0.544-1.26,0.959-2.07,1.247c-0.811,0.287-1.684,0.431-2.619,0.431
		c-1.753,0-3.2-0.564-4.342-1.693C162.275,141.614,161.705,140.144,161.705,138.331z M164.295,137.405h6.539
		c-0.016-0.359-0.088-0.713-0.218-1.061s-0.319-0.678-0.569-0.99s-0.589-0.563-1.016-0.75c-0.426-0.188-0.914-0.281-1.461-0.281
		c-0.518,0-0.984,0.092-1.403,0.275s-0.755,0.43-1.01,0.738s-0.454,0.637-0.599,0.984S164.326,137.03,164.295,137.405z"/>
	<path fill="#A11E27" d="M175.779,144.144v-11.59h2.52v1.699c0.461-0.578,1.023-1.051,1.688-1.418s1.359-0.551,2.086-0.551v2.496
		c-0.211-0.047-0.477-0.07-0.797-0.07c-0.531,0-1.098,0.154-1.699,0.463s-1.027,0.666-1.277,1.072v7.898H175.779z"/>
	<path fill="#A11E27" d="M183.408,140.575c0-0.644,0.118-1.215,0.355-1.713c0.236-0.498,0.551-0.895,0.943-1.189
		c0.393-0.294,0.82-0.516,1.283-0.665s0.939-0.224,1.429-0.224c1.644,0,2.894,0.506,3.747,1.519v-1.716
		c0-0.66-0.249-1.184-0.746-1.568c-0.498-0.386-1.153-0.578-1.967-0.578c-1.297,0-2.439,0.475-3.432,1.425l-1.021-1.72
		c1.316-1.256,2.938-1.885,4.863-1.885c0.673,0,1.289,0.076,1.848,0.229c0.56,0.152,1.066,0.387,1.52,0.703s0.809,0.754,1.067,1.313
		s0.388,1.213,0.388,1.963v7.676h-2.52v-1.272c-0.439,0.502-0.98,0.889-1.627,1.159s-1.354,0.406-2.12,0.406
		c-0.481,0-0.956-0.082-1.423-0.247s-0.896-0.402-1.289-0.712c-0.393-0.311-0.707-0.717-0.943-1.219
		C183.526,141.757,183.408,141.195,183.408,140.575z M185.928,140.622c0,0.612,0.232,1.105,0.698,1.481s1.06,0.563,1.779,0.563
		c0.571,0,1.104-0.103,1.598-0.308s0.88-0.498,1.163-0.878v-1.742c-0.283-0.38-0.67-0.672-1.163-0.878
		c-0.493-0.205-1.026-0.308-1.598-0.308c-0.72,0-1.313,0.188-1.779,0.563S185.928,139.994,185.928,140.622z"/>
</g>
<g>
	<g>
		<g>
			<g>
				<path fill="#A11E27" d="M145.781,1.688H69.219c-6.463,0-11.719,5.257-11.719,11.719v68.749c0,6.461,5.256,11.719,11.719,11.719
					h3.906v7.813h7.813v-7.813h53.125v7.813h7.813v-7.813h3.906c6.461,0,11.719-5.258,11.719-11.719V13.406
					C157.5,6.944,152.242,1.688,145.781,1.688z M151.614,83.728c0,2.253-1.83,4.085-4.083,4.085H67.469
					c-2.251,0-4.085-1.832-4.085-4.085v-4.084h8.17v-8.171h-8.17V24.09h8.17v-8.171h-8.17v-4.084c0-2.253,1.834-4.085,4.085-4.085
					h80.063c2.253,0,4.083,1.832,4.083,4.085V83.728z"/>
			</g>
		</g>
	</g>
	<g>
		<g>
			<g>
				<path fill="#A11E27" d="M115.038,24.644v-0.272c0-1.881-1.523-3.407-3.408-3.407c-1.883,0-3.408,1.526-3.408,3.407v0.272
					c-13.033,1.889-22.066,13.985-20.178,27.019c1.89,13.033,13.986,22.068,27.019,20.179c11.73-1.7,20.431-11.759,20.425-23.61
					C135.466,36.384,126.762,26.343,115.038,24.644z M111.63,44.82c1.885,0,3.408,1.526,3.408,3.41c0,1.88-1.523,3.405-3.408,3.405
					c-1.883,0-3.408-1.525-3.408-3.405C108.224,46.349,109.749,44.822,111.63,44.82z M111.63,65.271
					c-9.411-0.002-17.042-7.631-17.041-17.042c0-8.098,5.699-15.078,13.632-16.697v7.101c-5.323,1.881-8.114,7.725-6.232,13.049
					c1.883,5.323,7.726,8.114,13.048,6.23c5.324-1.881,8.113-7.724,6.23-13.046c-1.029-2.913-3.318-5.205-6.23-6.233v-7.101
					c9.221,1.884,15.171,10.886,13.288,20.108C126.706,59.573,119.726,65.27,111.63,65.271z"/>
			</g>
		</g>
	</g>
</g>
</svg>
