<?xml version="1.0" encoding="utf-8"?>
<!-- Generator: Adobe Illustrator 16.0.0, SVG Export Plug-In . SVG Version: 6.00 Build 0)  -->
<!DOCTYPE svg PUBLIC "-//W3C//DTD SVG 1.1//EN" "http://www.w3.org/Graphics/SVG/1.1/DTD/svg11.dtd">
<svg version="1.1" id="Capa_1" xmlns="http://www.w3.org/2000/svg" xmlns:xlink="http://www.w3.org/1999/xlink" x="0px" y="0px"
	 width="215px" height="150px" viewBox="0 0 215 150" enable-background="new 0 0 215 150" xml:space="preserve">
<g>
	<path fill="#A11E27" d="M12.367,144.144v-16.008h2.813v13.535h7.055v2.473H12.367z"/>
	<path fill="#A11E27" d="M24.508,130.796l3.363-3.457h2.391l-3.961,3.457H24.508z M24.695,144.144v-11.59h2.52v11.59H24.695z"/>
	<path fill="#A11E27" d="M30.473,144.144v-11.59h2.52v1.582c0.438-0.516,1.016-0.957,1.734-1.324s1.5-0.551,2.344-0.551
		c1.234,0,2.168,0.32,2.801,0.961s0.949,1.563,0.949,2.766v8.156h-2.52v-7.242c0-0.859-0.201-1.475-0.604-1.846
		s-0.979-0.557-1.729-0.557c-0.609,0-1.18,0.15-1.711,0.451s-0.953,0.67-1.266,1.107v8.086H30.473z"/>
	<path fill="#A11E27" d="M43.363,138.331c0-1.109,0.247-2.127,0.742-3.053c0.494-0.926,1.193-1.66,2.097-2.203
		c0.904-0.543,1.912-0.814,3.026-0.814c1.713,0,3.09,0.592,4.13,1.775c1.04,1.184,1.56,2.697,1.56,4.541v0.598h-8.941
		c0.102,0.918,0.479,1.68,1.133,2.288c0.653,0.607,1.509,0.911,2.565,0.911c0.586,0,1.182-0.111,1.787-0.335
		s1.107-0.535,1.506-0.936l1.137,1.655c-0.569,0.544-1.259,0.959-2.07,1.247c-0.811,0.287-1.684,0.431-2.619,0.431
		c-1.753,0-3.2-0.564-4.341-1.693C43.934,141.614,43.363,140.144,43.363,138.331z M45.953,137.405h6.539
		c-0.016-0.359-0.088-0.713-0.217-1.061s-0.319-0.678-0.569-0.99s-0.589-0.563-1.016-0.75c-0.426-0.188-0.914-0.281-1.461-0.281
		c-0.517,0-0.984,0.092-1.403,0.275c-0.419,0.184-0.755,0.43-1.01,0.738s-0.454,0.637-0.599,0.984
		C46.072,136.669,45.984,137.03,45.953,137.405z"/>
	<path fill="#A11E27" d="M56.746,140.575c0-0.644,0.119-1.215,0.355-1.713c0.237-0.498,0.552-0.895,0.944-1.189
		c0.393-0.294,0.82-0.516,1.283-0.665c0.463-0.149,0.939-0.224,1.429-0.224c1.644,0,2.893,0.506,3.747,1.519v-1.716
		c0-0.66-0.249-1.184-0.746-1.568c-0.498-0.386-1.153-0.578-1.967-0.578c-1.296,0-2.439,0.475-3.431,1.425l-1.021-1.72
		c1.317-1.256,2.938-1.885,4.864-1.885c0.672,0,1.288,0.076,1.848,0.229c0.559,0.152,1.065,0.387,1.519,0.703
		s0.809,0.754,1.067,1.313s0.387,1.213,0.387,1.963v7.676h-2.52v-1.272c-0.438,0.502-0.98,0.889-1.627,1.159
		c-0.646,0.271-1.353,0.406-2.12,0.406c-0.482,0-0.957-0.082-1.423-0.247s-0.896-0.402-1.289-0.712
		c-0.393-0.311-0.707-0.717-0.944-1.219C56.865,141.757,56.746,141.195,56.746,140.575z M59.266,140.622
		c0,0.612,0.233,1.105,0.699,1.481s1.059,0.563,1.779,0.563c0.572,0,1.104-0.103,1.598-0.308c0.493-0.205,0.88-0.498,1.163-0.878
		v-1.742c-0.282-0.38-0.669-0.672-1.163-0.878c-0.494-0.205-1.026-0.308-1.598-0.308c-0.72,0-1.313,0.188-1.779,0.563
		S59.266,139.994,59.266,140.622z"/>
	<path fill="#A11E27" d="M76.527,144.144v-16.008h2.813v16.008H76.527z"/>
	<path fill="#A11E27" d="M82.668,144.144v-11.59h2.52v1.582c0.438-0.516,1.016-0.957,1.734-1.324s1.5-0.551,2.344-0.551
		c1.234,0,2.168,0.32,2.801,0.961s0.949,1.563,0.949,2.766v8.156h-2.52v-7.242c0-0.859-0.201-1.475-0.604-1.846
		s-0.979-0.557-1.729-0.557c-0.609,0-1.18,0.15-1.711,0.451s-0.953,0.67-1.266,1.107v8.086H82.668z"/>
	<path fill="#A11E27" d="M95.266,142.632l1.16-1.833c0.438,0.447,1.021,0.833,1.752,1.158s1.455,0.487,2.174,0.487
		c0.734,0,1.299-0.145,1.693-0.434s0.592-0.667,0.592-1.136c0-0.305-0.129-0.559-0.387-0.761c-0.258-0.203-0.593-0.359-1.003-0.468
		c-0.411-0.108-0.862-0.227-1.352-0.356c-0.49-0.129-0.99-0.261-1.499-0.395c-0.509-0.134-0.968-0.319-1.378-0.555
		c-0.41-0.236-0.744-0.572-1.002-1.009s-0.387-0.957-0.387-1.563c0-0.986,0.406-1.817,1.219-2.494
		c0.813-0.676,1.926-1.014,3.34-1.014c1.773,0,3.277,0.541,4.512,1.621l-1.055,1.77c-0.359-0.415-0.846-0.752-1.459-1.011
		s-1.271-0.388-1.975-0.388c-0.656,0-1.18,0.133-1.57,0.398s-0.586,0.605-0.586,1.02c0,0.242,0.101,0.449,0.302,0.622
		c0.201,0.172,0.469,0.298,0.802,0.38c0.333,0.081,0.711,0.174,1.132,0.276c0.421,0.103,0.848,0.207,1.28,0.313
		s0.859,0.253,1.28,0.441c0.421,0.188,0.795,0.406,1.123,0.653s0.591,0.583,0.79,1.007c0.199,0.423,0.298,0.91,0.298,1.459
		c0,1.057-0.426,1.923-1.277,2.6s-2.035,1.015-3.551,1.015c-0.992,0-1.92-0.156-2.783-0.469S95.859,143.21,95.266,142.632z"/>
	<path fill="#A11E27" d="M106.176,134.733v-2.18h1.922v-3.199h2.52v3.199h2.355v2.18h-2.355v6.09c0,0.407,0.098,0.738,0.293,0.993
		s0.469,0.382,0.82,0.382c0.227,0,0.445-0.041,0.656-0.123c0.211-0.083,0.367-0.179,0.469-0.288l0.598,1.899
		c-0.523,0.5-1.316,0.75-2.379,0.75c-0.969,0-1.707-0.257-2.215-0.77s-0.762-1.251-0.762-2.214v-6.72H106.176z"/>
	<path fill="#A11E27" d="M115.404,130.679c-0.309-0.305-0.463-0.672-0.463-1.102s0.154-0.797,0.463-1.102s0.674-0.457,1.096-0.457
		c0.438,0,0.807,0.152,1.107,0.457s0.451,0.672,0.451,1.102s-0.15,0.797-0.451,1.102s-0.67,0.457-1.107,0.457
		C116.078,131.136,115.713,130.983,115.404,130.679z M115.246,144.144v-11.59h2.52v11.59H115.246z"/>
	<path fill="#A11E27" d="M119.605,134.733v-2.18h1.922v-3.199h2.52v3.199h2.355v2.18h-2.355v6.09c0,0.407,0.098,0.738,0.293,0.993
		s0.469,0.382,0.82,0.382c0.227,0,0.445-0.041,0.656-0.123c0.211-0.083,0.367-0.179,0.469-0.288l0.598,1.899
		c-0.523,0.5-1.316,0.75-2.379,0.75c-0.969,0-1.707-0.257-2.215-0.77s-0.762-1.251-0.762-2.214v-6.72H119.605z"/>
	<path fill="#A11E27" d="M128.676,140.757v-8.203h2.52v7.289c0,0.859,0.199,1.467,0.598,1.822s0.977,0.533,1.734,0.533
		c0.602,0,1.168-0.145,1.699-0.434s0.957-0.648,1.277-1.078v-8.133h2.52v11.59h-2.52v-1.535c-0.469,0.523-1.057,0.959-1.764,1.307
		s-1.486,0.521-2.338,0.521c-1.234,0-2.164-0.313-2.789-0.938S128.676,141.96,128.676,140.757z"/>
	<path fill="#A11E27" d="M141.566,138.331c0-1.758,0.561-3.209,1.682-4.354s2.561-1.717,4.318-1.717
		c1.938,0,3.418,0.688,4.441,2.063l-1.664,1.535c-0.641-0.906-1.527-1.359-2.66-1.359c-1.047,0-1.893,0.355-2.537,1.066
		s-0.967,1.633-0.967,2.766c0,1.141,0.322,2.07,0.967,2.789s1.49,1.078,2.537,1.078c1.109,0,1.996-0.457,2.66-1.371l1.664,1.535
		c-1.031,1.383-2.512,2.074-4.441,2.074c-1.758,0-3.197-0.574-4.318-1.723S141.566,140.104,141.566,138.331z"/>
	<path fill="#A11E27" d="M154.357,130.679c-0.309-0.305-0.463-0.672-0.463-1.102s0.154-0.797,0.463-1.102s0.674-0.457,1.096-0.457
		c0.438,0,0.807,0.152,1.107,0.457s0.451,0.672,0.451,1.102s-0.15,0.797-0.451,1.102s-0.67,0.457-1.107,0.457
		C155.031,131.136,154.666,130.983,154.357,130.679z M154.199,144.144v-11.59h2.52v11.59H154.199z"/>
	<path fill="#A11E27" d="M159.262,138.331c0-0.828,0.141-1.611,0.422-2.35s0.674-1.383,1.178-1.934s1.131-0.986,1.881-1.307
		s1.574-0.48,2.473-0.48c1.201,0,2.26,0.277,3.176,0.832s1.609,1.287,2.082,2.197c0.471,0.91,0.707,1.924,0.707,3.041
		c0,1.125-0.236,2.146-0.707,3.064c-0.473,0.918-1.166,1.654-2.082,2.209s-1.975,0.832-3.176,0.832
		c-0.898,0-1.723-0.162-2.473-0.486s-1.377-0.762-1.881-1.313s-0.896-1.197-1.178-1.939S159.262,139.167,159.262,138.331z
		 M161.875,138.331c0,1.078,0.301,1.992,0.902,2.742s1.414,1.125,2.438,1.125c1.039,0,1.857-0.373,2.455-1.119
		s0.896-1.662,0.896-2.748c0-1.07-0.299-1.977-0.896-2.719s-1.416-1.113-2.455-1.113c-1.023,0-1.836,0.371-2.438,1.113
		S161.875,137.261,161.875,138.331z"/>
	<path fill="#A11E27" d="M173.723,144.144v-11.59h2.52v1.582c0.438-0.516,1.016-0.957,1.734-1.324s1.5-0.551,2.344-0.551
		c1.234,0,2.168,0.32,2.801,0.961s0.949,1.563,0.949,2.766v8.156h-2.52v-7.242c0-0.859-0.201-1.475-0.604-1.846
		s-0.979-0.557-1.729-0.557c-0.609,0-1.18,0.15-1.711,0.451s-0.953,0.67-1.266,1.107v8.086H173.723z"/>
	<path fill="#A11E27" d="M186.637,140.575c0-0.644,0.119-1.215,0.355-1.713c0.237-0.498,0.552-0.895,0.944-1.189
		c0.393-0.294,0.82-0.516,1.282-0.665c0.463-0.149,0.939-0.224,1.43-0.224c1.644,0,2.893,0.506,3.746,1.519v-1.716
		c0-0.66-0.248-1.184-0.746-1.568c-0.497-0.386-1.152-0.578-1.967-0.578c-1.297,0-2.439,0.475-3.432,1.425l-1.021-1.72
		c1.317-1.256,2.939-1.885,4.864-1.885c0.673,0,1.288,0.076,1.848,0.229s1.065,0.387,1.519,0.703
		c0.454,0.316,0.81,0.754,1.068,1.313c0.258,0.559,0.387,1.213,0.387,1.963v7.676h-2.52v-1.272c-0.438,0.502-0.98,0.889-1.627,1.159
		c-0.646,0.271-1.353,0.406-2.119,0.406c-0.482,0-0.957-0.082-1.424-0.247c-0.466-0.165-0.896-0.402-1.288-0.712
		c-0.393-0.311-0.707-0.717-0.944-1.219C186.756,141.757,186.637,141.195,186.637,140.575z M189.156,140.622
		c0,0.612,0.232,1.105,0.699,1.481c0.465,0.376,1.059,0.563,1.779,0.563c0.571,0,1.104-0.103,1.598-0.308
		c0.492-0.205,0.88-0.498,1.162-0.878v-1.742c-0.282-0.38-0.67-0.672-1.162-0.878c-0.494-0.205-1.026-0.308-1.598-0.308
		c-0.721,0-1.314,0.188-1.779,0.563C189.389,139.493,189.156,139.994,189.156,140.622z"/>
	<path fill="#A11E27" d="M200.184,144.144v-16.008h2.52v16.008H200.184z"/>
</g>
<g>
	<g>
		<g>
			<path fill="#A11E27" d="M149.476,56.008h-2.469c-1.023,0-1.852,0.829-1.852,1.852s0.83,1.852,1.852,1.852h2.469
				c1.023,0,1.854-0.829,1.854-1.852S150.499,56.008,149.476,56.008z"/>
			<path fill="#A11E27" d="M105.031,28.848c-1.021,0-1.851,0.829-1.851,1.853v32.098c0,1.023,0.829,1.851,1.851,1.851
				c1.022,0,1.853-0.827,1.853-1.851V30.7C106.884,29.677,106.055,28.848,105.031,28.848z"/>
			<path fill="#A11E27" d="M149.476,63.415h-2.469c-1.023,0-1.852,0.83-1.852,1.853s0.83,1.851,1.852,1.851h2.469
				c1.023,0,1.854-0.828,1.854-1.851S150.499,63.415,149.476,63.415z"/>
			<path fill="#A11E27" d="M78.487,77.613V38.106c0-1.023-0.829-1.852-1.852-1.852c-1.021,0-1.852,0.83-1.852,1.852v39.507
				c0,1.022,0.83,1.852,1.852,1.852C77.658,79.465,78.487,78.636,78.487,77.613z"/>
			<path fill="#A11E27" d="M164.29,97.983h-0.617V52.922c0-2.384-1.938-4.321-4.32-4.321h-17.9v-8.025
				c0-2.383-1.938-4.321-4.321-4.321h-5.556v-5.555c0-2.383-1.938-4.321-4.32-4.321h-10.492v-5.555c0-2.384-1.939-4.322-4.322-4.322
				h-3.087V3.539c0-1.023-0.828-1.852-1.852-1.852c-1.022,0-1.852,0.83-1.852,1.852v12.962h-8.642v-3.086
				c0-2.383-1.939-4.32-4.32-4.32H90.22c-2.385,0-4.32,1.938-4.32,4.32v15.433H70.464c-2.382,0-4.32,1.938-4.32,4.321v44.444
				c0,1.022,0.829,1.852,1.85,1.852c1.024,0,1.853-0.829,1.853-1.852V33.169c0-0.34,0.278-0.618,0.618-0.618h15.432v65.433h-8.642
				V87.489c0-2.382-1.939-4.32-4.321-4.32H55.649c-2.383,0-4.322,1.938-4.322,4.32v10.494H50.71c-1.023,0-1.852,0.829-1.852,1.851
				c0,1.023,0.828,1.853,1.852,1.853h76.545c1.021,0,1.852-0.829,1.852-1.853c0-1.021-0.831-1.851-1.852-1.851h-25.311v-2.029
				c0-4.86,2.621-9.396,6.84-11.837c0.581-0.336,0.934-0.96,0.925-1.631l-0.004-0.111c0-4.327,3.521-7.848,7.849-7.848
				c3.718,0,6.952,2.639,7.69,6.276c0.175,0.863,0.935,1.484,1.816,1.484h0.194c7.536,0,13.666,6.131,13.666,13.668v2.027h-6.26
				c-1.022,0-1.852,0.83-1.852,1.852c0,1.023,0.829,1.853,1.852,1.853h29.629c1.024,0,1.852-0.829,1.852-1.853
				C166.144,98.813,165.314,97.983,164.29,97.983z M73.55,97.983H55.031V87.489c0-0.34,0.276-0.617,0.618-0.617h17.283
				c0.341,0,0.617,0.276,0.617,0.617V97.983L73.55,97.983z M116.76,30.083h10.495c0.338,0,0.617,0.275,0.617,0.617v5.555H116.76
				V30.083z M89.599,13.415c0-0.34,0.278-0.617,0.619-0.617h2.469c0.339,0,0.617,0.276,0.617,0.617v3.086h-3.705V13.415
				L89.599,13.415z M159.97,97.983h-15.344v-2.029c0-9.165-7.137-16.695-16.143-17.327c-1.579-4.6-5.962-7.804-10.93-7.804
				c-6.066,0-11.053,4.695-11.517,10.641c-4.835,3.203-7.797,8.663-7.797,14.49v2.029h-8.642V20.206h22.84
				c0.341,0,0.618,0.277,0.618,0.617v44.445c0,1.021,0.829,1.852,1.852,1.852c1.023,0,1.852-0.83,1.852-1.852v-25.31h20.37
				c0.341,0,0.618,0.278,0.618,0.618v37.037c0,1.022,0.828,1.852,1.852,1.852s1.851-0.829,1.851-1.852V52.304h17.902
				c0.341,0,0.617,0.278,0.617,0.619V97.983L159.97,97.983z"/>
			<path fill="#A11E27" d="M149.476,70.823h-2.469c-1.023,0-1.852,0.83-1.852,1.852c0,1.023,0.83,1.852,1.852,1.852h2.469
				c1.023,0,1.854-0.828,1.854-1.852C151.329,71.653,150.499,70.823,149.476,70.823z"/>
			<path fill="#A11E27" d="M129.724,43.662c-1.022,0-1.852,0.829-1.852,1.853v17.284c0,1.022,0.829,1.851,1.852,1.851
				c1.021,0,1.852-0.828,1.852-1.851V45.515C131.575,44.491,130.745,43.662,129.724,43.662z"/>
		</g>
	</g>
</g>
</svg>
