<?xml version="1.0" encoding="utf-8"?>
<!-- Generator: Adobe Illustrator 16.0.0, SVG Export Plug-In . SVG Version: 6.00 Build 0)  -->
<!DOCTYPE svg PUBLIC "-//W3C//DTD SVG 1.1//EN" "http://www.w3.org/Graphics/SVG/1.1/DTD/svg11.dtd">
<svg version="1.1" id="Capa_1" xmlns="http://www.w3.org/2000/svg" xmlns:xlink="http://www.w3.org/1999/xlink" x="0px" y="0px"
	 width="215px" height="150px" viewBox="0 0 215 150" enable-background="new 0 0 215 150" xml:space="preserve">
<g>
	<path fill="#A11E27" d="M27.203,144.144v-16.008h2.813v13.535h7.055v2.473H27.203z"/>
	<path fill="#A11E27" d="M39.344,130.796l3.363-3.457h2.391l-3.961,3.457H39.344z M39.531,144.144v-11.59h2.52v11.59H39.531z"/>
	<path fill="#A11E27" d="M45.309,144.144v-11.59h2.52v1.582c0.438-0.516,1.016-0.957,1.734-1.324s1.5-0.551,2.344-0.551
		c1.234,0,2.168,0.32,2.801,0.961s0.949,1.563,0.949,2.766v8.156h-2.52v-7.242c0-0.859-0.201-1.475-0.604-1.846
		s-0.979-0.557-1.729-0.557c-0.609,0-1.18,0.15-1.711,0.451s-0.953,0.67-1.266,1.107v8.086H45.309z"/>
	<path fill="#A11E27" d="M58.199,138.331c0-1.109,0.247-2.127,0.742-3.053c0.494-0.926,1.193-1.66,2.097-2.203
		c0.904-0.543,1.912-0.814,3.026-0.814c1.713,0,3.09,0.592,4.13,1.775c1.04,1.184,1.56,2.697,1.56,4.541v0.598h-8.941
		c0.102,0.918,0.479,1.68,1.133,2.288c0.653,0.607,1.509,0.911,2.565,0.911c0.586,0,1.182-0.111,1.787-0.335
		s1.107-0.535,1.506-0.936l1.137,1.655c-0.569,0.544-1.259,0.959-2.07,1.247c-0.811,0.287-1.684,0.431-2.619,0.431
		c-1.753,0-3.2-0.564-4.341-1.693C58.77,141.614,58.199,140.144,58.199,138.331z M60.789,137.405h6.539
		c-0.016-0.359-0.088-0.713-0.217-1.061s-0.319-0.678-0.569-0.99s-0.589-0.563-1.016-0.75c-0.426-0.188-0.914-0.281-1.461-0.281
		c-0.517,0-0.984,0.092-1.403,0.275c-0.419,0.184-0.755,0.43-1.01,0.738s-0.454,0.637-0.599,0.984
		C60.908,136.669,60.82,137.03,60.789,137.405z"/>
	<path fill="#A11E27" d="M71.582,140.575c0-0.644,0.119-1.215,0.355-1.713c0.237-0.498,0.552-0.895,0.944-1.189
		c0.393-0.294,0.82-0.516,1.283-0.665c0.463-0.149,0.939-0.224,1.429-0.224c1.644,0,2.893,0.506,3.747,1.519v-1.716
		c0-0.66-0.249-1.184-0.746-1.568c-0.498-0.386-1.153-0.578-1.967-0.578c-1.296,0-2.439,0.475-3.431,1.425l-1.021-1.72
		c1.317-1.256,2.938-1.885,4.864-1.885c0.672,0,1.288,0.076,1.848,0.229c0.559,0.152,1.065,0.387,1.519,0.703
		s0.809,0.754,1.067,1.313s0.387,1.213,0.387,1.963v7.676h-2.52v-1.272c-0.438,0.502-0.98,0.889-1.627,1.159
		c-0.646,0.271-1.353,0.406-2.12,0.406c-0.482,0-0.957-0.082-1.423-0.247s-0.896-0.402-1.289-0.712
		c-0.393-0.311-0.707-0.717-0.944-1.219C71.701,141.757,71.582,141.195,71.582,140.575z M74.102,140.622
		c0,0.612,0.233,1.105,0.699,1.481s1.059,0.563,1.779,0.563c0.572,0,1.104-0.103,1.598-0.308c0.493-0.205,0.88-0.498,1.163-0.878
		v-1.742c-0.282-0.38-0.669-0.672-1.163-0.878c-0.494-0.205-1.026-0.308-1.598-0.308c-0.72,0-1.313,0.188-1.779,0.563
		S74.102,139.994,74.102,140.622z"/>
	<path fill="#A11E27" d="M91.363,144.144v-16.008h3.961l4.348,10.535l4.371-10.535h3.961v16.008h-2.813v-11.883l-4.922,11.883
		h-1.195l-4.898-11.883v11.883H91.363z"/>
	<path fill="#A11E27" d="M111.49,130.679c-0.309-0.305-0.463-0.672-0.463-1.102s0.154-0.797,0.463-1.102s0.674-0.457,1.096-0.457
		c0.438,0,0.807,0.152,1.107,0.457s0.451,0.672,0.451,1.102s-0.15,0.797-0.451,1.102s-0.67,0.457-1.107,0.457
		C112.164,131.136,111.799,130.983,111.49,130.679z M111.332,144.144v-11.59h2.52v11.59H111.332z"/>
	<path fill="#A11E27" d="M117.109,144.144v-11.59h2.52v1.582c0.438-0.516,1.016-0.957,1.734-1.324s1.5-0.551,2.344-0.551
		c1.234,0,2.168,0.32,2.801,0.961s0.949,1.563,0.949,2.766v8.156h-2.52v-7.242c0-0.859-0.201-1.475-0.604-1.846
		s-0.979-0.557-1.729-0.557c-0.609,0-1.18,0.15-1.711,0.451s-0.953,0.67-1.266,1.107v8.086H117.109z"/>
	<path fill="#A11E27" d="M130.873,130.679c-0.309-0.305-0.463-0.672-0.463-1.102s0.154-0.797,0.463-1.102s0.674-0.457,1.096-0.457
		c0.438,0,0.807,0.152,1.107,0.457s0.451,0.672,0.451,1.102s-0.15,0.797-0.451,1.102s-0.67,0.457-1.107,0.457
		C131.547,131.136,131.182,130.983,130.873,130.679z M130.715,144.144v-11.59h2.52v11.59H130.715z"/>
	<path fill="#A11E27" d="M136.563,144.144v-16.008h7.883c1.423,0,2.539,0.387,3.349,1.16s1.214,1.746,1.214,2.918
		c0,0.969-0.269,1.781-0.807,2.438c-0.537,0.656-1.198,1.066-1.982,1.23c0.859,0.133,1.59,0.578,2.191,1.336
		s0.902,1.625,0.902,2.602c0,1.273-0.41,2.313-1.23,3.117s-1.961,1.207-3.422,1.207H136.563z M139.375,134.757h4.488
		c0.703,0,1.256-0.191,1.658-0.574s0.604-0.879,0.604-1.488c0-0.617-0.201-1.119-0.604-1.506s-0.955-0.58-1.658-0.58h-4.488V134.757
		z M139.375,141.671h4.605c0.766,0,1.365-0.197,1.799-0.592s0.65-0.939,0.65-1.635c0-0.633-0.215-1.16-0.645-1.582
		s-1.031-0.633-1.805-0.633h-4.605V141.671z"/>
	<path fill="#A11E27" d="M151.352,140.575c0-0.644,0.119-1.215,0.355-1.713c0.237-0.498,0.552-0.895,0.944-1.189
		c0.393-0.294,0.82-0.516,1.282-0.665c0.463-0.149,0.939-0.224,1.43-0.224c1.644,0,2.893,0.506,3.746,1.519v-1.716
		c0-0.66-0.248-1.184-0.746-1.568c-0.497-0.386-1.152-0.578-1.967-0.578c-1.297,0-2.439,0.475-3.432,1.425l-1.021-1.72
		c1.317-1.256,2.939-1.885,4.864-1.885c0.673,0,1.288,0.076,1.848,0.229s1.065,0.387,1.519,0.703
		c0.454,0.316,0.81,0.754,1.068,1.313c0.258,0.559,0.387,1.213,0.387,1.963v7.676h-2.52v-1.272c-0.438,0.502-0.98,0.889-1.627,1.159
		c-0.646,0.271-1.353,0.406-2.119,0.406c-0.482,0-0.957-0.082-1.424-0.247c-0.466-0.165-0.896-0.402-1.288-0.712
		c-0.393-0.311-0.707-0.717-0.944-1.219C151.471,141.757,151.352,141.195,151.352,140.575z M153.871,140.622
		c0,0.612,0.232,1.105,0.699,1.481c0.465,0.376,1.059,0.563,1.779,0.563c0.571,0,1.104-0.103,1.598-0.308
		c0.492-0.205,0.88-0.498,1.162-0.878v-1.742c-0.282-0.38-0.67-0.672-1.162-0.878c-0.494-0.205-1.026-0.308-1.598-0.308
		c-0.721,0-1.314,0.188-1.779,0.563C154.104,139.493,153.871,139.994,153.871,140.622z"/>
	<path fill="#A11E27" d="M164.898,144.144v-11.59h2.52v1.582c0.438-0.516,1.016-0.957,1.734-1.324s1.5-0.551,2.344-0.551
		c1.234,0,2.168,0.32,2.801,0.961s0.949,1.563,0.949,2.766v8.156h-2.52v-7.242c0-0.859-0.201-1.475-0.604-1.846
		s-0.979-0.557-1.729-0.557c-0.609,0-1.18,0.15-1.711,0.451s-0.953,0.67-1.266,1.107v8.086H164.898z"/>
	<path fill="#A11E27" d="M178.504,144.144v-16.008h2.52v10.008l5.121-5.59h3.117l-4.828,5.25l4.922,6.34h-3.164l-3.551-4.781
		l-1.617,1.664v3.117H178.504z"/>
</g>
<g>
	<g>
		<g>
			<g>
				<path fill="#A11E27" d="M152.501,36.688h-21.668V3.354c0-0.92-0.746-1.667-1.666-1.667H85.833c-0.92,0-1.666,0.747-1.666,1.667
					v33.333H62.501c-0.922,0-1.668,0.747-1.668,1.667v55c0,0.92,0.746,1.666,1.668,1.666h3.332v5c0,0.921,0.746,1.667,1.668,1.667
					h13.332c0.92,0,1.668-0.746,1.668-1.667v-5h50v5c0,0.921,0.746,1.667,1.666,1.667h13.334c0.92,0,1.666-0.746,1.666-1.667v-5
					h3.334c0.92,0,1.666-0.746,1.666-1.666v-55C154.167,37.435,153.421,36.688,152.501,36.688z M87.501,5.021h40v31.667h-3.334v-20
					c0-0.921-0.746-1.667-1.666-1.667h-5v-5c0-0.92-0.746-1.666-1.668-1.666H99.167c-0.92,0-1.666,0.746-1.666,1.666v5h-5
					c-0.922,0-1.668,0.746-1.668,1.667v20h-3.332V5.021z M107.501,23.354c-4.602,0.005-8.328,3.732-8.334,8.333
					c0.006,1.81,0.607,3.566,1.709,5h-6.709V18.354h5c0.92,0,1.666-0.747,1.666-1.667v-5h13.334v5c0,0.92,0.746,1.667,1.666,1.667h5
					v18.333h-6.709c1.102-1.434,1.705-3.19,1.709-5C115.829,27.087,112.101,23.359,107.501,23.354z M112.501,31.688
					c0,2.762-2.238,5-5,5s-5-2.238-5-5s2.238-5,5-5S112.501,28.926,112.501,31.688z M79.167,98.354h-10v-3.334h10V98.354z
					 M145.833,98.354h-10v-3.334h10V98.354z M150.833,91.688H64.167V40.021h86.666V91.688z"/>
			</g>
		</g>
		<g>
			<g>
				<rect x="92.501" y="70.021" fill="#A11E27" width="5" height="3.334"/>
			</g>
		</g>
		<g>
			<g>
				<rect x="84.167" y="70.021" fill="#A11E27" width="5" height="3.334"/>
			</g>
		</g>
		<g>
			<g>
				<rect x="75.833" y="70.021" fill="#A11E27" width="5" height="3.334"/>
			</g>
		</g>
		<g>
			<g>
				<rect x="92.501" y="76.688" fill="#A11E27" width="5" height="3.333"/>
			</g>
		</g>
		<g>
			<g>
				<rect x="84.167" y="76.688" fill="#A11E27" width="5" height="3.333"/>
			</g>
		</g>
		<g>
			<g>
				<rect x="75.833" y="76.688" fill="#A11E27" width="5" height="3.333"/>
			</g>
		</g>
		<g>
			<g>
				<rect x="92.501" y="83.354" fill="#A11E27" width="5" height="3.333"/>
			</g>
		</g>
		<g>
			<g>
				<rect x="84.167" y="83.354" fill="#A11E27" width="5" height="3.333"/>
			</g>
		</g>
		<g>
			<g>
				<rect x="75.833" y="83.354" fill="#A11E27" width="5" height="3.333"/>
			</g>
		</g>
		<g>
			<g>
				<rect x="90.833" y="8.354" fill="#A11E27" width="3.334" height="3.333"/>
			</g>
		</g>
		<g>
			<g>
				<rect x="120.833" y="8.354" fill="#A11E27" width="3.334" height="3.333"/>
			</g>
		</g>
		<g>
			<g>
				<path fill="#A11E27" d="M102.501,45.021H70.833c-0.92,0-1.666,0.746-1.666,1.667v16.667c0,0.92,0.746,1.666,1.666,1.666h31.668
					c0.92,0,1.666-0.746,1.666-1.666V46.688C104.167,45.767,103.421,45.021,102.501,45.021z M100.833,61.688H72.501V48.354h28.332
					V61.688z"/>
			</g>
		</g>
	</g>
	<g>
		<g>
			<g>
				<path fill="#A11E27" d="M129.536,52.227v-0.164c0-1.126-0.912-2.041-2.041-2.041s-2.043,0.915-2.043,2.041v0.164
					c-7.811,1.132-13.225,8.38-12.092,16.191c1.133,7.81,8.381,13.224,16.191,12.093c7.029-1.02,12.242-7.047,12.238-14.15
					C141.778,59.262,136.562,53.244,129.536,52.227z M127.493,64.317c1.129,0,2.043,0.914,2.043,2.043
					c0,1.126-0.914,2.042-2.043,2.042s-2.043-0.915-2.043-2.042C125.454,65.233,126.366,64.317,127.493,64.317z M127.493,76.573
					c-5.639-0.002-10.211-4.573-10.211-10.213c0-4.853,3.414-9.036,8.168-10.006v4.255c-3.189,1.127-4.861,4.629-3.734,7.82
					c1.129,3.19,4.629,4.862,7.82,3.733c3.189-1.128,4.861-4.629,3.734-7.818c-0.617-1.746-1.99-3.119-3.734-3.736v-4.254
					c5.525,1.129,9.09,6.523,7.963,12.051C136.528,73.159,132.345,76.571,127.493,76.573z"/>
			</g>
		</g>
	</g>
</g>
</svg>
