<?xml version="1.0" encoding="utf-8"?>
<!-- Generator: Adobe Illustrator 16.0.0, SVG Export Plug-In . SVG Version: 6.00 Build 0)  -->
<!DOCTYPE svg PUBLIC "-//W3C//DTD SVG 1.1//EN" "http://www.w3.org/Graphics/SVG/1.1/DTD/svg11.dtd">
<svg version="1.1" id="Capa_1" xmlns="http://www.w3.org/2000/svg" xmlns:xlink="http://www.w3.org/1999/xlink" x="0px" y="0px"
	 width="130px" height="150px" viewBox="0 0 130 150" enable-background="new 0 0 130 150" xml:space="preserve">
<g>
	<g>
		<g>
			<g>
				<path fill="#A11E27" d="M120.058,48.666L66.456,2.23c-0.836-0.724-2.076-0.724-2.912,0L9.942,48.666
					c-0.701,0.609-0.951,1.589-0.627,2.459s1.154,1.447,2.084,1.447h13.475v46.892c0,1.228,0.996,2.224,2.225,2.224h75.803
					c1.229,0,2.225-0.996,2.225-2.224V52.572h13.476c0.929,0,1.759-0.577,2.084-1.447C121.009,50.255,120.759,49.275,120.058,48.666
					z M102.901,48.124c-1.229,0-2.225,0.995-2.225,2.224v46.892H29.323V50.348c0-1.229-0.996-2.224-2.225-2.224h-9.735L65,6.854
					l47.637,41.27H102.901z"/>
			</g>
		</g>
		<g>
			<g>
				<path fill="#A11E27" d="M99.587,41.401L85.042,28.616c-0.924-0.812-2.328-0.722-3.139,0.201
					c-0.812,0.923-0.722,2.328,0.201,3.139l14.545,12.787c0.423,0.371,0.947,0.554,1.468,0.554c0.618,0,1.231-0.257,1.672-0.756
					C100.6,43.619,100.509,42.213,99.587,41.401z"/>
			</g>
		</g>
		<g>
			<g>
				<path fill="#A11E27" d="M79.896,24.091l-0.672-0.59c-0.923-0.813-2.328-0.721-3.139,0.201c-0.813,0.923-0.721,2.328,0.201,3.14
					l0.672,0.59c0.422,0.372,0.946,0.555,1.468,0.555c0.617,0,1.231-0.255,1.671-0.757C80.908,26.308,80.817,24.902,79.896,24.091z"
					/>
			</g>
		</g>
	</g>
	<g>
		<g>
			<path fill="#A11E27" d="M68.397,44.644v-0.271c0-1.882-1.525-3.408-3.408-3.408s-3.408,1.526-3.408,3.408v0.271
				c-13.033,1.889-22.066,13.986-20.178,27.02c1.89,13.033,13.986,22.067,27.02,20.179c11.729-1.702,20.43-11.76,20.424-23.611
				C88.825,56.384,80.122,46.343,68.397,44.644z M64.989,64.82c1.883,0,3.408,1.526,3.408,3.41c0,1.881-1.525,3.405-3.408,3.405
				s-3.408-1.524-3.408-3.405C61.583,66.349,63.108,64.822,64.989,64.82z M64.989,85.271c-9.411-0.002-17.041-7.632-17.041-17.043
				c0-8.097,5.699-15.077,13.633-16.696v7.101c-5.324,1.881-8.115,7.725-6.232,13.049c1.883,5.323,7.725,8.114,13.049,6.23
				c5.323-1.882,8.113-7.724,6.23-13.047c-1.029-2.912-3.319-5.204-6.23-6.232v-7.101c9.221,1.883,15.17,10.886,13.287,20.107
				C80.065,79.573,73.086,85.27,64.989,85.271z"/>
		</g>
	</g>
</g>
<g>
	<path fill="#A11E27" d="M3.389,144.144v-16.008h2.813v13.535h7.055v2.473H3.389z"/>
	<path fill="#A11E27" d="M15.529,130.796l3.363-3.457h2.391l-3.961,3.457H15.529z M15.717,144.144v-11.59h2.52v11.59H15.717z"/>
	<path fill="#A11E27" d="M21.494,144.144v-11.59h2.52v1.582c0.438-0.516,1.016-0.957,1.734-1.324s1.5-0.551,2.344-0.551
		c1.234,0,2.168,0.32,2.801,0.961s0.949,1.563,0.949,2.766v8.156h-2.52v-7.242c0-0.859-0.201-1.475-0.604-1.846
		s-0.979-0.557-1.729-0.557c-0.609,0-1.18,0.15-1.711,0.451s-0.953,0.67-1.266,1.107v8.086H21.494z"/>
	<path fill="#A11E27" d="M34.385,138.331c0-1.109,0.247-2.127,0.742-3.053c0.494-0.926,1.193-1.66,2.097-2.203
		c0.904-0.543,1.912-0.814,3.026-0.814c1.713,0,3.09,0.592,4.13,1.775c1.04,1.184,1.56,2.697,1.56,4.541v0.598h-8.941
		c0.102,0.918,0.479,1.68,1.133,2.288c0.653,0.607,1.509,0.911,2.565,0.911c0.586,0,1.182-0.111,1.787-0.335
		s1.107-0.535,1.506-0.936l1.137,1.655c-0.569,0.544-1.259,0.959-2.07,1.247c-0.811,0.287-1.684,0.431-2.619,0.431
		c-1.753,0-3.2-0.564-4.341-1.693C34.955,141.614,34.385,140.144,34.385,138.331z M36.975,137.405h6.539
		c-0.016-0.359-0.088-0.713-0.217-1.061s-0.319-0.678-0.569-0.99s-0.589-0.563-1.016-0.75c-0.426-0.188-0.914-0.281-1.461-0.281
		c-0.517,0-0.984,0.092-1.403,0.275c-0.419,0.184-0.755,0.43-1.01,0.738s-0.454,0.637-0.599,0.984
		C37.094,136.669,37.006,137.03,36.975,137.405z"/>
	<path fill="#A11E27" d="M47.768,140.575c0-0.644,0.119-1.215,0.355-1.713c0.237-0.498,0.552-0.895,0.944-1.189
		c0.393-0.294,0.82-0.516,1.283-0.665c0.463-0.149,0.939-0.224,1.429-0.224c1.644,0,2.893,0.506,3.747,1.519v-1.716
		c0-0.66-0.249-1.184-0.746-1.568c-0.498-0.386-1.153-0.578-1.967-0.578c-1.296,0-2.439,0.475-3.431,1.425l-1.021-1.72
		c1.317-1.256,2.938-1.885,4.864-1.885c0.672,0,1.288,0.076,1.848,0.229c0.559,0.152,1.065,0.387,1.519,0.703
		s0.809,0.754,1.067,1.313s0.387,1.213,0.387,1.963v7.676h-2.52v-1.272c-0.438,0.502-0.98,0.889-1.627,1.159
		c-0.646,0.271-1.353,0.406-2.12,0.406c-0.482,0-0.957-0.082-1.423-0.247s-0.896-0.402-1.289-0.712
		c-0.393-0.311-0.707-0.717-0.944-1.219C47.886,141.757,47.768,141.195,47.768,140.575z M50.287,140.622
		c0,0.612,0.233,1.105,0.699,1.481s1.059,0.563,1.779,0.563c0.572,0,1.104-0.103,1.598-0.308c0.493-0.205,0.88-0.498,1.163-0.878
		v-1.742c-0.282-0.38-0.669-0.672-1.163-0.878c-0.494-0.205-1.026-0.308-1.598-0.308c-0.72,0-1.313,0.188-1.779,0.563
		S50.287,139.994,50.287,140.622z"/>
	<path fill="#A11E27" d="M67.479,144.144v-16.008h2.52v6c0.438-0.516,1.02-0.957,1.746-1.324s1.516-0.551,2.367-0.551
		c1.242,0,2.176,0.313,2.801,0.938s0.938,1.539,0.938,2.742v8.203h-2.52v-7.301c0-0.852-0.201-1.455-0.604-1.811
		s-0.986-0.533-1.752-0.533c-0.602,0-1.166,0.15-1.693,0.451s-0.955,0.67-1.283,1.107v8.086H67.479z"/>
	<path fill="#A11E27" d="M80.393,138.331c0-0.828,0.141-1.611,0.422-2.35s0.674-1.383,1.178-1.934s1.131-0.986,1.881-1.307
		s1.574-0.48,2.473-0.48c1.2,0,2.259,0.277,3.175,0.832s1.611,1.287,2.082,2.197c0.473,0.91,0.708,1.924,0.708,3.041
		c0,1.125-0.235,2.146-0.708,3.064c-0.471,0.918-1.166,1.654-2.082,2.209s-1.975,0.832-3.175,0.832
		c-0.898,0-1.723-0.162-2.473-0.486s-1.377-0.762-1.881-1.313s-0.896-1.197-1.178-1.939S80.393,139.167,80.393,138.331z
		 M83.006,138.331c0,1.078,0.301,1.992,0.902,2.742s1.414,1.125,2.438,1.125c1.039,0,1.857-0.373,2.455-1.119
		s0.896-1.662,0.896-2.748c0-1.07-0.299-1.977-0.896-2.719s-1.416-1.113-2.455-1.113c-1.023,0-1.836,0.371-2.438,1.113
		S83.006,137.261,83.006,138.331z"/>
	<path fill="#A11E27" d="M94.139,138.208c0-1.834,0.477-3.284,1.43-4.35c0.953-1.064,2.188-1.598,3.703-1.598
		c0.734,0,1.422,0.164,2.063,0.492s1.195,0.797,1.664,1.406v-1.605h2.52v10.992c0,0.805-0.117,1.521-0.352,2.15
		s-0.541,1.137-0.92,1.523s-0.832,0.705-1.359,0.955s-1.061,0.424-1.6,0.521s-1.113,0.146-1.723,0.146
		c-1.023,0-1.916-0.129-2.678-0.387s-1.486-0.703-2.174-1.336l1.172-1.828c0.859,0.992,2.086,1.488,3.68,1.488
		c0.438,0,0.85-0.055,1.236-0.164c0.387-0.11,0.75-0.28,1.09-0.512c0.34-0.23,0.609-0.558,0.809-0.98s0.299-0.92,0.299-1.491v-1.397
		c-0.461,0.597-1.014,1.067-1.658,1.413s-1.334,0.519-2.068,0.519c-1.516,0-2.75-0.525-3.703-1.578
		C94.615,141.538,94.139,140.077,94.139,138.208z M97.643,135.517c-0.594,0.679-0.891,1.576-0.891,2.691s0.297,2.015,0.891,2.697
		s1.387,1.023,2.379,1.023c0.578,0,1.148-0.152,1.711-0.456c0.563-0.305,0.984-0.675,1.266-1.111v-4.306
		c-0.281-0.438-0.703-0.806-1.266-1.106c-0.563-0.3-1.133-0.45-1.711-0.45C99.029,134.499,98.236,134.838,97.643,135.517z"/>
	<path fill="#A11E27" d="M108.072,140.575c0-0.644,0.118-1.215,0.355-1.713s0.552-0.895,0.944-1.189
		c0.393-0.294,0.82-0.516,1.283-0.665s0.938-0.224,1.428-0.224c1.645,0,2.894,0.506,3.747,1.519v-1.716
		c0-0.66-0.249-1.184-0.745-1.568c-0.498-0.386-1.154-0.578-1.968-0.578c-1.296,0-2.439,0.475-3.431,1.425l-1.021-1.72
		c1.316-1.256,2.938-1.885,4.863-1.885c0.672,0,1.288,0.076,1.848,0.229c0.559,0.152,1.065,0.387,1.52,0.703
		c0.453,0.316,0.809,0.754,1.066,1.313c0.259,0.559,0.388,1.213,0.388,1.963v7.676h-2.52v-1.272
		c-0.438,0.502-0.98,0.889-1.627,1.159c-0.646,0.271-1.353,0.406-2.12,0.406c-0.481,0-0.956-0.082-1.422-0.247
		c-0.467-0.165-0.896-0.402-1.289-0.712c-0.393-0.311-0.707-0.717-0.944-1.219S108.072,141.195,108.072,140.575z M110.592,140.622
		c0,0.612,0.233,1.105,0.698,1.481c0.467,0.376,1.06,0.563,1.779,0.563c0.572,0,1.104-0.103,1.598-0.308
		c0.494-0.205,0.881-0.498,1.163-0.878v-1.742c-0.282-0.38-0.669-0.672-1.163-0.878c-0.493-0.205-1.025-0.308-1.598-0.308
		c-0.72,0-1.313,0.188-1.779,0.563C110.825,139.493,110.592,139.994,110.592,140.622z"/>
	<path fill="#A11E27" d="M121.619,144.144v-11.59h2.52v1.699c0.461-0.578,1.023-1.051,1.688-1.418s1.359-0.551,2.086-0.551v2.496
		c-0.211-0.047-0.477-0.07-0.797-0.07c-0.531,0-1.098,0.154-1.699,0.463s-1.027,0.666-1.277,1.072v7.898H121.619z"/>
</g>
</svg>
